<svg width="20" height="20" viewBox="0 0 20 20" fill="none" xmlns="http://www.w3.org/2000/svg">
<path d="M16.8028 7.22927C15.9747 3.62341 12.7961 2 10.0039 2C10.0039 2 10.0039 2 9.99606 2C7.21182 2 4.02534 3.61561 3.19717 7.22146C2.27435 11.2488 4.76675 14.6595 7.02253 16.8059C7.85859 17.6019 8.93126 18 10.0039 18C11.0766 18 12.1493 17.6019 12.9775 16.8059C15.2333 14.6595 17.7257 11.2566 16.8028 7.22927ZM10.0039 11.1395C8.63155 11.1395 7.51943 10.039 7.51943 8.68098C7.51943 7.32293 8.63155 6.22244 10.0039 6.22244C11.3763 6.22244 12.4885 7.32293 12.4885 8.68098C12.4885 10.039 11.3763 11.1395 10.0039 11.1395Z" fill="white"/>
</svg>
