<svg width="60" height="53" viewBox="0 0 60 53" fill="none" xmlns="http://www.w3.org/2000/svg">
<path d="M55.8439 0.0565491H4.15606C1.86453 0.0565491 0 1.95904 0 4.29724V40.0785C0 42.4167 1.86453 44.3192 4.15606 44.3192H34.2961L33.386 49.9823C33.2148 51.0483 33.5603 52.014 34.3105 52.565C35.0605 53.1161 36.067 53.1456 37.0039 52.6418L43.5066 49.1494C43.6881 49.0545 44.188 49.0545 44.3694 49.1494L50.8721 52.6418C51.3169 52.8808 51.7776 52.9998 52.2191 52.9998C52.7074 52.9998 53.1719 52.8541 53.5657 52.5648C54.3157 52.0137 54.6612 51.0478 54.4902 49.9818L53.5804 44.3189H55.8442C58.1357 44.3189 60.0002 42.4164 60.0002 40.0783V4.29724C60 1.9588 58.1355 0.0565491 55.8439 0.0565491ZM43.9381 37.0504C39.9443 37.0504 36.6947 33.7347 36.6947 29.6595C36.6947 25.5843 39.9443 22.2686 43.9381 22.2686C47.932 22.2686 51.1816 25.5843 51.1816 29.6595C51.1816 33.7347 47.932 37.0504 43.9381 37.0504ZM46.0287 45.9331C44.8173 45.2822 43.0587 45.2822 41.8475 45.9331L37.2502 48.4021L38.7117 39.3055C40.2618 40.1834 42.0434 40.685 43.9384 40.685C45.8333 40.685 47.6147 40.1832 49.165 39.3055L49.7345 42.8519C49.736 42.8577 49.7364 42.864 49.7376 42.8698L50.6265 48.4024L46.0287 45.9331ZM56.4377 40.0785C56.4377 40.4068 56.1657 40.6843 55.8439 40.6843H52.9962L52.3457 36.6353C52.3431 36.6193 52.3388 36.604 52.3357 36.588C53.8402 34.6935 54.7441 32.2824 54.7441 29.6595C54.7441 23.5798 49.8967 18.6337 43.9384 18.6337C37.98 18.6337 33.1326 23.5798 33.1326 29.6595C33.1326 32.2824 34.0365 34.6931 35.541 36.588C35.5379 36.6038 35.5336 36.6193 35.531 36.6351L34.88 40.6875C34.8601 40.6867 34.8409 40.6843 34.8209 40.6843H4.15606C3.83426 40.6843 3.56234 40.4068 3.56234 40.0785V4.29724C3.56234 3.96889 3.83426 3.69143 4.15606 3.69143H55.8439C56.1657 3.69143 56.4377 3.96889 56.4377 4.29724V40.0785Z" fill="white"/>
<path d="M49.5448 10.5157H9.1716C8.18768 10.5157 7.39043 11.3292 7.39043 12.3332C7.39043 13.3371 8.18768 14.1506 9.1716 14.1506H49.5448C50.5287 14.1506 51.3259 13.3371 51.3259 12.3332C51.3259 11.3292 50.5287 10.5157 49.5448 10.5157Z" fill="white"/>
<path d="M26.2708 20.3706H9.1716C8.18768 20.3706 7.39043 21.1841 7.39043 22.1881C7.39043 23.192 8.18768 24.0055 9.1716 24.0055H26.2708C27.2547 24.0055 28.052 23.192 28.052 22.1881C28.052 21.1841 27.2547 20.3706 26.2708 20.3706Z" fill="white"/>
</svg>
