<?xml version="1.0" encoding="UTF-8"?>
<!DOCTYPE svg PUBLIC "-//W3C//DTD SVG 1.0//EN" "http://www.w3.org/TR/2001/REC-SVG-20010904/DTD/svg10.dtd">
<!-- Creator: CorelDRAW 2020 (64-Bit) -->
<svg xmlns="http://www.w3.org/2000/svg" xml:space="preserve" width="28.4486in" height="20.9867in" version="1.0" style="shape-rendering:geometricPrecision; text-rendering:geometricPrecision; image-rendering:optimizeQuality; fill-rule:evenodd; clip-rule:evenodd"
viewBox="0 0 28178.78 20787.68"
 xmlns:xlink="http://www.w3.org/1999/xlink"
 xmlns:xodm="http://www.corel.com/coreldraw/odm/2003">
 <defs>
  <style type="text/css">
   <![CDATA[
    .fil1 {fill:white}
    .fil0 {fill:white;fill-rule:nonzero}
   ]]>
  </style>
 </defs>
 <g id="Layer_x0020_1">
  <metadata id="CorelCorpID_0Corel-Layer"/>
  <g id="_1732289343968">
   <path class="fil0" d="M23268.33 4912.02l-18960.86 0c-462.22,0 -836.57,382.16 -836.57,853.61 0,471.45 374.35,853.61 836.57,853.61l18960.86 0c462.22,0 836.57,-382.16 836.57,-853.61 0,-471.45 -374.35,-853.61 -836.57,-853.61z"/>
   <path class="fil0" d="M12337.88 9540.4l-8030.41 0c-462.22,0 -836.57,381.98 -836.57,853.43 0,471.63 374.35,853.61 836.57,853.61l8030.41 0c462.04,0 836.57,-381.98 836.57,-853.61 0,-471.45 -374.53,-853.43 -836.57,-853.43z"/>
   <path class="fil1" d="M1951.81 0l24275.17 0c1073.5,0 1951.81,878.3 1951.81,1951.8l0 16884.08c0,1073.49 -878.3,1951.8 -1951.81,1951.8l-24275.17 0c-1073.5,0 -1951.81,-878.3 -1951.81,-1951.8l0 -16884.08c0,-1073.5 878.3,-1951.8 1951.81,-1951.8zm24275.17 1873.27l-24275.17 0c-19.65,0 -38.89,9.4 -54.01,24.52 -15.12,15.12 -24.52,34.36 -24.52,54.01l0 16884.08c0,19.65 9.4,38.89 24.52,54 15.12,15.12 34.35,24.52 54.01,24.52l24275.17 0c19.65,0 38.89,-9.4 54.01,-24.52 15.12,-15.12 24.52,-34.35 24.52,-54l0 -16884.08c0,-19.65 -9.4,-38.89 -24.52,-54.01 -15.12,-15.12 -34.35,-24.52 -54.01,-24.52z"/>
   <g>
    <path class="fil1" d="M24806.3 11015.04c-170.52,-1009.51 -692.7,-1883.59 -1428.11,-2505.1 -735.96,-622.15 -1684.75,-991.74 -2707.56,-991.74l0 1.18c-166.19,0 -300.93,134.73 -300.93,300.93l0 3873.27c-1.42,22.57 -0.32,45.69 3.54,68.97 27.37,164.23 182.71,275.21 346.94,247.84l3838.35 -648.41c164.23,-27.45 275.13,-182.79 247.76,-346.94l0.01 -0.01zm0 0z"/>
    <path class="fil0" d="M16525.37 16113.26c-193.88,193.88 -178.23,514.15 35.71,685.62 800.14,641.25 1818.39,1028.55 2921.5,1028.55l0 -1.34 3.23 0c1062.92,0 2125.76,-360.78 2989.14,-1082.5 173.98,-145.51 186.72,-408.52 26.35,-568.9l-2746.34 -2746.33c-150.46,-150.38 -394.29,-150.38 -544.67,0l-2684.91 2684.9zm0 0z"/>
    <path class="fil0" d="M24129.1 12672.66c-18.64,-177.76 -168.16,-308.24 -340.09,-308.24 -20.68,0 -41.61,1.89 -62.77,5.82l-2802.81 519.03c-304.94,56.47 -421.5,431.73 -202.22,651.01l2137.4 2137.4c176.5,176.5 470.35,140.16 601.46,-72.28 250.12,-404.83 439.98,-850.87 557.34,-1325.38 1.89,-7.71 3.7,-15.34 5.58,-23.05 22.49,-92.81 42.32,-186.33 58.99,-280.4 75.51,-421.98 93.67,-860 47.11,-1303.91l0 -0zm0 0z"/>
    <path class="fil0" d="M19055.41 12728.82l314.38 -314.37c72.2,-72.2 112.79,-170.13 112.79,-272.3l0 -3292.89c0,-190.11 -154.48,-342.38 -341.19,-342.38 -8.89,0 -17.85,0.39 -26.9,1.02 -2405.38,187.75 -4298.79,2199.07 -4298.79,4652.65 0,897.66 253.5,1736.19 692.78,2447.84 130.09,210.79 423.94,243.43 599.1,68.27l2947.85 -2947.84zm0 0z"/>
   </g>
  </g>
 </g>
</svg>
