<svg width="57" height="53" viewBox="0 0 57 53" fill="none" xmlns="http://www.w3.org/2000/svg">
<path d="M3.95865 32.7088V4.38482C3.95865 4.15001 4.15001 3.95865 4.38399 3.95865H46.1215C46.3555 3.95865 46.5466 4.15001 46.5466 4.38482V25.9175H50.5053V4.38482C50.5053 1.96676 48.5396 5.40632e-09 46.1215 5.40632e-09H4.38399C1.96593 -0.00011907 0 1.96676 0 4.38482V32.7088C0 35.1269 1.96593 37.0937 4.38399 37.0937H18.3743V42.7764H16.1689C15.0749 42.7764 14.1896 43.6626 14.1896 44.7558C14.1896 45.8488 15.075 46.7351 16.1689 46.7351H34.3363C35.4303 46.7351 36.3157 45.8488 36.3157 44.7558C36.3157 43.6626 35.4302 42.7764 34.3363 42.7764H32.129V37.0937H38.8401V33.135H4.38399C4.15013 33.135 3.95865 32.9436 3.95865 32.7088Z" fill="white"/>
<path d="M53.9131 28.3921H43.8408C42.4473 28.3921 41.3144 29.5257 41.3144 30.9192V49.9942C41.3144 51.3881 42.4473 52.5216 43.8408 52.5216H53.9131C55.3068 52.5216 56.4396 51.388 56.4396 49.9942V30.9192C56.4394 29.5256 55.3068 28.3921 53.9131 28.3921ZM44.2834 31.361H53.4705V47.9233H44.2834V31.361ZM48.876 51.1772C48.6905 51.1772 48.5243 51.1193 48.3715 51.0382C48.0256 50.8535 47.7801 50.4997 47.7801 50.0794C47.7801 49.4735 48.2709 48.9825 48.876 48.9825C49.4828 48.9825 49.9739 49.4735 49.9739 50.0794C49.9739 50.4997 49.7303 50.8535 49.3824 51.0382C49.2277 51.1193 49.0615 51.1772 48.876 51.1772Z" fill="white"/>
</svg>
