<svg width="67" height="53" viewBox="0 0 67 53" fill="none" xmlns="http://www.w3.org/2000/svg">
<path d="M62.7952 32.7196V14.9215L63.5393 14.6998C66.3996 13.8473 67 12.4042 67 11.3436C66.9999 10.283 66.3994 8.83987 63.5392 7.98784L39.0631 0.696363C37.5556 0.247281 35.5799 0 33.5003 0C31.4205 0 29.4449 0.247281 27.937 0.696363L3.4611 7.98784C0.600514 8.83987 0 10.283 0 11.3437C0 12.4043 0.600383 13.8476 3.46097 14.6999L12.615 17.4269V27.0018C12.615 28.8264 13.8093 31.3965 19.4992 33.2799C23.268 34.5273 28.2402 35.2143 33.5 35.2143C38.7596 35.2143 43.7319 34.5273 47.5006 33.2799C53.1907 31.3964 54.385 28.8264 54.385 27.0018V17.427L58.8693 16.0911V32.7196C56.4283 33.5359 54.6644 35.8287 54.6644 38.5245V46.8754C54.6644 50.2525 57.4312 53 60.8322 53C64.2331 53 67 50.2526 67 46.8754V38.5245C67.0001 35.8287 65.2363 33.5357 62.7952 32.7196ZM29.065 4.43027C30.2002 4.09203 31.8168 3.89815 33.5003 3.89815C35.1835 3.89815 36.8 4.09203 37.9351 4.43014L61.1426 11.3437L51.8484 14.1126C51.8431 14.1142 51.8378 14.1157 51.8325 14.1174L37.9352 18.2575C36.8001 18.5956 35.1838 18.7895 33.5004 18.7895C31.817 18.7895 30.2004 18.5956 29.0653 18.2575L15.168 14.1174C15.1627 14.1157 15.1574 14.1142 15.1521 14.1126L5.85792 11.3437L29.065 4.43027ZM50.4595 27.0017C50.4595 27.253 49.7467 28.4272 46.2594 29.5815C42.8804 30.7 38.349 31.3159 33.5001 31.3159C28.6511 31.3159 24.1197 30.7 20.7408 29.5815C17.2537 28.4272 16.5408 27.2529 16.5408 27.0017V18.5962L27.9372 21.9912C29.4448 22.4403 31.4205 22.6876 33.5003 22.6876C35.5799 22.6876 37.5555 22.4403 39.0632 21.9912L50.4595 18.5962V27.0017ZM63.0744 46.8753C63.0744 48.1029 62.0686 49.1016 60.8323 49.1016C59.5961 49.1016 58.5903 48.103 58.5903 46.8753V38.5244C58.5903 37.2967 59.596 36.2978 60.8323 36.2978C62.0687 36.2978 63.0744 37.2967 63.0744 38.5244V46.8753Z" fill="white"/>
</svg>
